<?xml version="1.0" encoding="UTF-8"?>
<svg width="2258px" height="747px" viewBox="0 0 2258 747" version="1.1" xmlns="http://www.w3.org/2000/svg" xmlns:xlink="http://www.w3.org/1999/xlink">
    <!-- Generator: Sketch 43.2 (39069) - http://www.bohemiancoding.com/sketch -->
    <title>Atomic Modules</title>
    <desc>Created with Sketch.</desc>
    <defs></defs>
    <g id="Page-1" stroke="none" stroke-width="1" fill="none" fill-rule="evenodd">
        <g id="Atomic-Modules" fill="#0047A0">
            <g id="atom" fill-rule="nonzero">
                <path d="M708.926221,250.814143 C693.184519,244.759886 676.389813,239.265879 658.730647,234.335679 C663.289515,216.578421 666.928783,199.28715 669.557736,182.627271 C683.23434,95.9094643 668.120528,35.0787643 627.001779,11.3401714 C615.048757,4.43931429 601.311677,0.939085714 586.172962,0.939085714 C538.357319,0.939085714 477.937643,36.4482643 416.984349,96.4145786 C403.668826,83.3385214 390.292826,71.3278286 376.959515,60.5461286 C308.693889,5.34282857 248.446749,-11.9857929 207.331557,11.7528 C180.906843,27.0076071 164.836077,58.1610643 160.86063,101.841 C160.19183,109.177607 165.599149,115.665836 172.936383,116.3328 C180.29674,117.012214 186.760621,111.594686 187.429421,104.258079 C189.631481,80.0801786 197.18394,48.4144929 220.670204,34.8564429 C251.104162,17.2823786 301.956085,34.2072643 360.182596,81.2878286 C372.888017,91.5608571 385.643243,103.016636 398.355779,115.495093 C372.790187,142.694786 347.349106,173.999421 322.920119,208.597971 C279.946162,212.50905 239.014179,219.0702 201.449319,228.069771 C194.8716,202.501029 190.353643,178.104364 188.124902,155.456036 C187.404519,148.124764 180.905064,142.767707 173.542928,143.488029 C166.21103,144.20835 160.851736,150.737486 161.573898,158.068757 C163.932485,182.033229 168.703021,207.808286 175.656051,234.783879 C158.587421,239.596693 142.340562,244.943079 127.077336,250.812364 C45.1279915,282.32865 5.68434189e-14,325.832507 5.68434189e-14,373.307914 C5.68434189e-14,420.783321 45.1279915,464.287179 127.073779,495.801686 C142.815481,501.855943 159.610187,507.34995 177.269353,512.28015 C172.710485,530.037407 169.071217,547.328679 166.442264,563.988557 C152.76566,650.706364 167.879472,711.537064 208.998221,735.275657 C220.951243,742.176514 234.688323,745.676743 249.827038,745.676743 C297.093055,745.676743 356.676732,710.966143 416.916757,652.246607 C429.821396,664.849564 442.779396,676.451186 455.698264,686.896736 C504.01017,725.964836 548.296826,746.062693 584.636145,746.060914 C599.645013,746.059136 613.307387,742.628271 625.326221,735.690064 C666.44497,711.951471 681.558783,651.120771 667.882179,564.402964 C665.255004,547.744864 661.615736,530.455371 657.056868,512.699893 C684.518579,505.137407 709.77823,496.230321 732.151013,486.092464 C738.862136,483.051107 741.836162,475.147136 738.794545,468.436586 C735.752928,461.726036 727.846502,458.750486 721.137157,461.793621 C699.949004,471.39435 675.998494,479.846121 649.913515,487.035107 C639.129115,450.999471 624.767702,413.380907 607.266843,375.326593 C625.553898,335.981036 640.502289,297.062336 651.63354,259.833279 C750.646179,287.554093 809.319149,331.335407 809.319149,373.307914 C809.319149,400.425793 785.669243,422.800221 765.829362,436.792243 C759.808383,441.039471 758.371174,449.361407 762.616987,455.381871 C766.864579,461.404114 775.187226,462.839421 781.208204,458.593971 C817.054817,433.311579 836,403.819307 836,373.307914 C836,325.832507 790.872009,282.32865 708.926221,250.814143 L708.926221,250.814143 Z M586.171183,27.6194357 C596.566043,27.6194357 605.815404,29.9155714 613.659574,34.4455929 C644.097089,52.0178786 654.865481,104.514193 643.198834,178.472529 C640.699728,194.314264 637.240111,210.769607 632.901804,227.683821 C595.180417,218.741164 554.106136,212.245821 511.002332,208.413 C486.818809,174.189729 461.436426,142.892207 435.628928,115.477307 C440.351438,110.821007 445.077506,106.303436 449.794681,101.956607 C501.825898,54.0187714 550.256979,27.6194357 586.171183,27.6194357 L586.171183,27.6194357 Z M417.021702,134.604064 C437.151515,156.057193 457.042979,179.987871 476.294102,205.928336 C457.13903,204.884314 437.67446,204.343629 418,204.343629 C397.667413,204.343629 377.555387,204.91455 357.781319,206.027936 C377.005762,180.131936 396.923906,156.103436 417.021702,134.604064 L417.021702,134.604064 Z M416.92743,614.2083 C396.084349,592.118443 375.490289,567.35895 355.586374,540.458057 C376.066596,541.656814 396.913234,542.2722 418,542.2722 C438.311243,542.2722 458.43394,541.679936 478.24714,540.548764 C458.361013,567.341164 437.733157,592.145121 416.92743,614.2083 Z M418,515.593629 C389.335872,515.593629 361.831472,514.4838 335.620204,512.420657 C320.897711,490.942629 306.655472,468.347657 293.096264,444.8634 C279.750502,421.750864 267.473753,398.430236 256.353174,375.223436 C267.897089,350.926371 280.734136,326.469236 294.766485,302.165057 C308.355932,278.631 322.781379,255.81015 337.770681,234.033321 C363.338051,232.078671 390.116732,231.0222 418,231.0222 C445.166443,231.0222 471.283438,232.025314 496.253157,233.883921 C511.254911,255.701657 525.762179,278.677243 539.563294,302.577686 C553.526272,326.760921 566.304621,351.095336 577.805847,375.273236 C566.743966,398.291507 554.520579,421.439614 541.235294,444.448993 C527.672528,467.938586 513.273762,490.718529 498.314698,512.459786 C472.139004,514.519371 445.255379,515.593629 418,515.593629 Z M301.289064,509.09295 C268.466281,505.301036 237.998528,499.970657 210.209532,493.423736 C218.647796,465.341871 229.345038,436.224879 242.100264,406.647236 C250.812451,423.878036 260.115174,441.1035 269.988868,458.202686 C280.070672,475.6647 290.531345,492.655393 301.289064,509.09295 Z M303.405745,237.275657 C292.535966,253.848386 281.922323,271.052507 271.660868,288.825771 C261.107702,307.102371 251.207328,325.482129 241.997098,343.833429 C228.580187,313.032129 217.347549,282.693257 208.578443,253.572707 C237.399098,246.7092 269.129745,241.152943 303.405745,237.275657 Z M26.6808511,373.307914 C26.6808511,331.561286 84.7277106,288.023636 182.776281,260.2797 C193.866621,297.277543 208.747421,336.082414 226.897515,375.259007 C209.442902,413.25285 195.120621,450.807386 184.362902,486.784329 C85.3538213,459.061736 26.6808511,415.280421 26.6808511,373.307914 L26.6808511,373.307914 Z M249.828817,718.996393 C239.433957,718.996393 230.184596,716.700257 222.340426,712.170236 C191.902911,694.59795 181.134519,642.101636 192.801166,568.1433 C195.300272,552.301564 198.759889,535.846221 203.098196,518.932007 C239.594043,527.584757 279.227557,533.944929 320.80166,537.818657 C345.61663,573.046821 371.705166,605.196279 398.229489,633.235457 C394.220247,637.150093 390.209226,640.968686 386.205319,644.659221 C334.174102,692.598836 285.743021,718.996393 249.828817,718.996393 Z M641.528613,568.557707 C653.19526,642.516043 642.426868,695.012357 611.989353,712.584643 C581.55006,730.15515 530.703472,713.232043 472.476962,666.153257 C460.216221,656.2395 447.905677,645.224807 435.636043,633.251464 C461.891779,605.544879 488.040791,573.486129 513.12257,537.957386 C554.801617,534.131679 594.627234,527.824864 631.210238,519.266379 C635.559217,536.20905 639.025949,552.691071 641.528613,568.557707 Z M624.043762,493.585586 C595.470349,500.224993 564.792706,505.448657 532.725881,509.139193 C543.549413,492.628714 554.118587,475.492179 564.339132,457.790057 C574.152349,440.794029 583.394596,423.71085 592.049864,406.643679 C604.847779,436.274679 615.578817,465.448586 624.043762,493.585586 L624.043762,493.585586 Z M592.172596,343.927693 C583.008613,325.681329 573.1616,307.410064 562.668911,289.2384 C552.320298,271.313957 541.57503,253.883957 530.514928,237.040886 C564.942119,240.8577 596.818621,246.365936 625.790468,253.192093 C616.976894,282.526071 605.687336,312.993 592.172596,343.927693 L592.172596,343.927693 Z" id="Shape"></path>
                <path d="M418,306.611486 C381.219557,306.611486 351.297872,336.530614 351.297872,373.307914 C351.297872,410.085214 381.219557,440.004343 418,440.004343 C454.780443,440.004343 484.702128,410.085214 484.702128,373.307914 C484.702128,336.530614 454.780443,306.611486 418,306.611486 Z M418,413.325771 C395.933157,413.325771 377.978723,395.372871 377.978723,373.307914 C377.978723,351.242957 395.933157,333.290057 418,333.290057 C440.066843,333.290057 458.021277,351.242957 458.021277,373.307914 C458.021277,395.372871 440.066843,413.325771 418,413.325771 Z" id="Shape"></path>
            </g>
            <text id="M-dules" font-family="AvenirNext-Regular, Avenir Next" font-size="322" font-weight="normal">
                <tspan x="945" y="517">M   dules</tspan>
            </text>
            <g id="school" transform="translate(895.000000, 57.000000)" fill-rule="nonzero">
                <path d="M346.510802,159.510787 L346.510802,122.732998 L381.789071,103.139159 L190.903483,0.673902725 L0,103.148151 L76.1037176,147.569245 L76.1037176,173.727335 L76.1037176,175.786532 C76.3095001,175.678626 76.5689649,175.579713 76.7926415,175.471807 C75.9784587,176.595823 75.450582,177.692862 75.450582,178.843854 C75.450582,191.684607 127.110924,202.15144 190.903483,202.15144 C254.660253,202.15144 306.374277,191.684607 306.374277,178.843854 C306.374277,177.692862 305.819559,176.595823 305.032218,175.471807 C305.255894,175.606689 305.515359,175.678626 305.712195,175.786532 L305.712195,173.727335 L305.712195,147.497308 L338.914745,126.968289 L338.914745,159.510787 C335.291185,161.003479 332.741272,164.618313 332.741272,168.808643 C332.741272,174.347792 337.205856,178.843854 342.7083,178.843854 C348.264426,178.843854 352.720063,174.347792 352.720063,168.808643 C352.720063,164.618313 350.179098,161.003479 346.510802,159.510787 Z M190.903483,193.312182 C134.295415,193.312182 88.4327704,186.819868 88.4327704,178.852846 C88.4327704,170.885824 134.295415,164.411494 190.903483,164.411494 C247.484709,164.411494 293.365248,170.885824 293.365248,178.852846 C293.365248,186.819868 247.484709,193.312182 190.903483,193.312182 Z M303.215964,126.132021 C295.61096,117.95818 268.250842,96.5029715 190.903483,96.5029715 C113.511388,96.5029715 86.1960046,117.976164 78.5999482,126.158997 L78.5999482,118.389802 C78.5999482,118.389802 100.752876,84.966076 190.903483,84.966076 C281.045142,84.966076 303.215964,118.389802 303.215964,118.389802 L303.215964,126.132021 Z" id="Shape"></path>
                <path d="M334.620155,180.90305 L330.43293,237.805213 C342.600935,218.840823 352.630593,225.989562 352.630593,225.989562 L352.630593,180.90305 C339.657351,185.965616 334.620155,180.90305 334.620155,180.90305 Z" id="Shape"></path>
            </g>
            <g id="globe" transform="translate(1271.000000, 351.000000)" fill-rule="nonzero">
                <path d="M156.089875,134.782781 C145.258156,131.17975 133.611938,128.487375 121.354844,126.74525 C123.023438,116.942969 123.911469,106.671219 124.194281,96.15625 L169.472562,96.15625 C168.460094,110.415656 163.66925,123.611688 156.089875,134.782781 L156.089875,134.782781 Z M109.923562,167.193094 C113.690625,158.092188 116.773281,148.255969 119.14325,137.893719 C129.313187,139.398281 139.064563,141.621188 148.301219,144.539812 C138.097344,155.416781 124.850406,163.420375 109.923562,167.193094 L109.923562,167.193094 Z M95.9922188,169.410344 C94.1709063,169.540438 92.35525,169.6875 90.5,169.6875 C88.64475,169.6875 86.83475,169.540438 85.0077813,169.410344 C80.1943125,159.387469 76.2971563,148.233344 73.4124688,136.394813 C79.0347813,135.902719 84.730625,135.61425 90.5,135.61425 C96.269375,135.61425 101.965219,135.902719 107.593187,136.394813 C104.702844,148.233344 100.805688,159.387469 95.9922188,169.410344 L95.9922188,169.410344 Z M32.6987813,144.539812 C41.9354375,141.621188 51.6868125,139.398281 61.85675,137.893719 C64.2267187,148.255969 67.309375,158.092188 71.0764375,167.193094 C56.1495937,163.420375 42.9083125,155.416781 32.6987813,144.539812 L32.6987813,144.539812 Z M24.910125,134.782781 C17.33075,123.611688 12.5399063,110.415656 11.5274375,96.15625 L56.8057188,96.15625 C57.0885312,106.671219 57.9765625,116.942969 59.6451562,126.74525 C47.3880625,128.487375 35.7418437,131.17975 24.910125,134.782781 L24.910125,134.782781 Z M24.910125,46.2172188 C35.7418437,49.82025 47.3880625,52.5182812 59.6451562,54.25475 C57.9765625,64.0570313 57.0885312,74.3287812 56.8057188,84.84375 L11.5274375,84.84375 C12.5399063,70.5843438 17.33075,57.3883125 24.910125,46.2172188 L24.910125,46.2172188 Z M71.0764375,13.8069063 C67.309375,22.9078125 64.2267187,32.7440312 61.85675,43.1062812 C51.6868125,41.607375 41.9354375,39.3788125 32.6987813,36.4601875 C42.9083125,25.5832188 56.1495937,17.579625 71.0764375,13.8069063 L71.0764375,13.8069063 Z M85.0077813,11.5896562 C86.83475,11.4652188 88.64475,11.3125 90.5,11.3125 C92.35525,11.3125 94.1709063,11.4652188 95.9922188,11.5896562 C100.805688,21.6125313 104.702844,32.7723125 107.593187,44.6051875 C101.965219,45.0972812 96.269375,45.38575 90.5,45.38575 C84.730625,45.38575 79.0347813,45.0972812 73.4124688,44.6051875 C76.2971563,32.7723125 80.1943125,21.6125313 85.0077813,11.5896562 L85.0077813,11.5896562 Z M112.864813,96.15625 C112.559375,106.116906 111.654375,115.913531 109.951844,125.319875 C103.582906,124.765563 97.1065,124.4375 90.5,124.4375 C83.8935,124.4375 77.4170938,124.765563 71.0538125,125.319875 C69.345625,115.913531 68.440625,106.116906 68.1408437,96.15625 L112.864813,96.15625 L112.864813,96.15625 Z M68.1408437,84.84375 C68.440625,74.8830938 69.345625,65.0864687 71.0538125,55.680125 C77.4170938,56.2344375 83.8935,56.5625 90.5,56.5625 C97.1065,56.5625 103.582906,56.2344375 109.946187,55.680125 C111.654375,65.0864687 112.559375,74.8830938 112.864813,84.84375 L68.1408437,84.84375 L68.1408437,84.84375 Z M148.301219,36.4601875 C139.064563,39.3788125 129.313187,41.607375 119.14325,43.1062812 C116.773281,32.7440312 113.690625,22.9078125 109.923562,13.8069063 C124.850406,17.579625 138.097344,25.5832188 148.301219,36.4601875 L148.301219,36.4601875 Z M156.089875,46.2172188 C163.66925,57.3883125 168.460094,70.5843438 169.472562,84.84375 L124.194281,84.84375 C123.911469,74.3287812 123.023438,64.0570313 121.354844,54.25475 C133.611938,52.5182812 145.258156,49.82025 156.089875,46.2172188 L156.089875,46.2172188 Z M90.5,0 C40.521375,0 0,40.5157188 0,90.5 C0,140.484281 40.521375,181 90.5,181 C140.478625,181 181,140.484281 181,90.5 C181,40.5157188 140.478625,0 90.5,0 L90.5,0 Z"></path>
            </g>
        </g>
    </g>
</svg>