<?xml version="1.0" encoding="UTF-8"?>
<svg width="790px" height="203px" viewBox="0 0 790 203" version="1.1" xmlns="http://www.w3.org/2000/svg" xmlns:xlink="http://www.w3.org/1999/xlink">
    <!-- Generator: Sketch 43.2 (39069) - http://www.bohemiancoding.com/sketch -->
    <title>Group</title>
    <desc>Created with Sketch.</desc>
    <defs></defs>
    <g id="Page-1" stroke="none" stroke-width="1" fill="none" fill-rule="evenodd">
        <g id="Group" transform="translate(0.000000, -10.000000)" fill-rule="nonzero" fill="#EAEAEA">
            <g id="school" transform="translate(235.000000, 16.000000)">
                <path d="M288.402276,131.442511 L288.402276,101.036119 L317.764515,84.8367235 L158.889704,0.122583168 L0,84.8441579 L63.3414175,121.569726 L63.3414175,143.19618 L63.3414175,144.89864 C63.512691,144.809428 63.7286446,144.727651 63.9148114,144.638439 C63.237164,145.567729 62.7978102,146.474717 62.7978102,147.426311 C62.7978102,158.042528 105.794912,166.696083 158.889704,166.696083 C211.95471,166.696083 254.996492,158.042528 254.996492,147.426311 C254.996492,146.474717 254.534798,145.567729 253.87949,144.638439 C254.065657,144.749954 254.281611,144.809428 254.445438,144.89864 L254.445438,143.19618 L254.445438,121.510252 L282.080049,104.537686 L282.080049,131.442511 C279.064145,132.676609 276.941843,135.665208 276.941843,139.129603 C276.941843,143.709148 280.657734,147.426311 285.237439,147.426311 C289.861824,147.426311 293.570268,143.709148 293.570268,139.129603 C293.570268,135.665208 291.455412,132.676609 288.402276,131.442511 Z M158.889704,159.388141 C111.774592,159.388141 73.6029356,154.020558 73.6029356,147.433745 C73.6029356,140.846933 111.774592,135.494218 158.889704,135.494218 C205.982477,135.494218 244.169026,140.846933 244.169026,147.433745 C244.169026,154.020558 205.982477,159.388141 158.889704,159.388141 Z M252.367815,103.846294 C246.038142,97.0884921 223.26621,79.3501912 158.889704,79.3501912 C94.4759656,79.3501912 71.7412669,97.1033608 65.4190398,103.868597 L65.4190398,97.4453398 C65.4190398,97.4453398 83.8570071,69.8119515 158.889704,69.8119515 C233.914955,69.8119515 252.367815,97.4453398 252.367815,97.4453398 L252.367815,103.846294 Z" id="Shape"></path>
                <path d="M278.505645,149.128771 L275.020601,196.173184 C285.148079,180.494191 293.495801,186.40448 293.495801,186.40448 L293.495801,149.128771 C282.698123,153.314297 278.505645,149.128771 278.505645,149.128771 Z" id="Shape"></path>
            </g>
            <g id="001-diploma-roll" transform="translate(708.641329, 113.842149) scale(-1, 1) rotate(-313.000000) translate(-708.641329, -113.842149) translate(599.141329, 64.342149)">
                <path d="M213.036823,11.8360908 C209.07625,4.12608404 203.132083,0.0504846552 195.84604,0.0504846552 L195.0053,0.0504846552 L194.180824,0.170964944 C170.994326,3.53051144 144.548514,5.25137969 115.581861,5.28625556 L112.504754,5.28625556 C63.8675491,5.14480098 24.0840223,0.195109779 23.6959038,0.145356785 L22.9612902,0.0504846552 L22.2206124,0.0504846552 C14.9345692,0.0504846552 8.99012605,4.12608404 5.0298286,11.8360908 C1.78622729,18.150331 0,26.7361369 0,36.0104363 C0,45.2859552 1.78622729,53.8715171 5.0298286,60.1857573 C8.99012605,67.8962519 14.9345692,71.9718513 22.2206124,71.9718513 L22.741871,71.9718513 L23.2532061,71.924781 C48.5346622,69.6678487 73.4478468,68.261351 97.2997699,67.7430907 L97.4943804,67.7421151 L97.4943804,98.7462784 L113.430119,93.0663889 L129.366133,98.7462784 L129.366133,67.5860273 C171.55831,68.1947698 193.731235,71.7791803 193.953962,71.8160073 L194.893661,71.972339 L195.84604,71.972339 C203.132634,71.972339 209.076526,67.8967396 213.036823,60.1867328 C216.2807,53.8722488 218.066652,45.2866868 218.066652,36.011168 C218.066652,26.7361369 216.280149,18.150331 213.036823,11.8360908 Z M196.072075,69.840033 L195.319268,69.840033 L194.575007,69.7166261 C194.331606,69.6751653 171.683732,66.0478306 129.366133,65.4505508 L129.366133,65.4539652 C129.28647,65.4534774 129.208736,65.4520141 129.129348,65.4505508 L97.4943804,65.610053 L97.4943804,65.6115164 C73.7868992,66.1258745 48.9299477,67.5116417 23.2645078,69.8024744 L22.8565423,69.840033 L22.4469229,69.840033 C8.57609621,69.840033 2.36812942,52.7303688 2.36812942,35.7738657 C2.36812942,18.818582 8.57609621,1.70867389 22.4469229,1.70867389 L23.0321329,1.70867389 L23.6129324,1.78354726 C24.0109744,1.83500747 63.5309776,6.801283 112.723622,6.9444448 L115.807621,6.9444448 C144.875438,6.90956892 171.436196,5.18260349 194.752527,1.80452157 L195.407201,1.70867389 L196.071799,1.70867389 C209.942626,1.70867389 216.151144,18.8188259 216.151144,35.7738657 C216.151419,52.7303688 209.942901,69.840033 196.072075,69.840033 Z" id="Shape"></path>
                <path d="M196.07235,5.20333391 L195.413817,5.25089192 C176.291813,8.0229141 154.997668,9.67525003 131.98676,10.2237524 C133.237395,11.9577906 134.346069,14.3125217 135.255722,17.1418574 C157.294679,16.5201888 177.758008,14.8751695 196.272474,12.2138721 C197.276675,12.3941048 198.773743,13.9644946 200.195834,16.7045676 C190.628767,17.2413634 161.345942,18.9500372 136.318637,21.0874649 C137.314569,25.4906048 137.899228,30.6334547 137.899228,36.1521348 C137.899228,47.3748492 135.526412,57.1086322 132.051814,61.9997905 C173.115195,62.7090145 195.080002,66.2417209 195.321749,66.2822062 L196.071799,66.3451291 C206.617431,66.3451291 212.135165,50.9653569 212.135165,35.7741096 C212.135716,20.5831061 206.618258,5.20333391 196.07235,5.20333391 Z" id="Shape"></path>
                <path d="M29.048797,18.5485989 L29.0430083,18.5900597 C27.6843178,18.4734816 26.3118447,18.6856635 25.052389,19.3197703 C19.6286532,22.0569166 18.5095046,30.4737085 18.5252168,37.0506153 L18.534589,41.149384 L30.4628936,39.4643671 C29.9840854,53.8973691 26.7311119,58.0097955 25.3509205,59.1089952 C24.6273331,59.1709426 23.9213874,59.2109401 23.1961461,59.2804479 L20.6664844,58.248805 C18.0171895,55.6145791 14.4157914,47.9801773 14.4157914,35.7743535 C14.4157914,20.8221156 19.8491751,12.5897024 22.2768454,12.207775 C26.433683,12.720182 61.3574587,16.8287062 105.369768,17.3755013 C104.465629,14.5005587 103.359711,12.1053423 102.109077,10.33716 C57.6394597,9.59623057 23.4020584,5.28869444 23.0313059,5.24138032 L22.4466473,5.2035778 C11.9021176,5.2035778 6.38355734,20.5831061 6.38355734,35.7741096 C6.38355734,50.5902584 11.6465878,65.5424963 21.6902572,66.2731824 C22.4110881,66.4670727 23.2132365,66.6141367 24.1347423,66.6141367 C25.2941362,66.6141367 26.5679257,66.4163442 27.8549466,65.9278381 C53.5336178,63.7433402 78.3693441,62.4673223 102.044023,62.0541773 C105.5415,57.1839934 107.933611,47.4221634 107.933611,36.1523787 C107.933611,31.5185214 107.518754,27.1524523 106.801231,23.258305 C74.5964902,23.8143679 29.5741903,18.6095707 29.048797,18.5485989 Z" id="Shape"></path>
            </g>
            <g id="books-stack" transform="translate(0.000000, 46.181698)">
                <path d="M0,117.977801 C0,127.927528 8.10274714,136.021601 18.0626899,136.021601 L22.0769315,136.021601 L132.290703,136.021601 L140.318188,136.021601 L148.681856,136.021601 L148.681856,128.002312 L140.318188,128.002312 L140.318188,107.953291 L148.681856,107.953291 L148.681856,104.444603 L152.6953,104.444603 L158.716263,104.444603 L158.716263,96.4253133 L152.6953,96.4253133 L152.6953,76.3776883 L158.716263,76.3776883 L158.716263,68.3585984 L152.6953,68.3585984 L152.193619,68.3585984 L152.193619,65.6872967 L152.193619,61.6774527 L152.193619,61.5053486 L142.282387,42.9603931 L152.695499,42.9603931 L152.695499,32.1768699 L126.501115,0.19304367 L34.0851198,0.19304367 L10.2524067,37.7063347 C6.17647811,41.0191874 3.51276088,46.0074119 3.51276088,51.6531416 C3.51276088,61.5408463 11.5208815,69.5794799 21.398575,69.6777966 C14.7525576,72.3445114 10.0350052,78.8208474 10.0350052,86.4023982 C10.0350052,91.9073336 12.5679621,96.7816863 16.4716065,100.09414 C7.26568153,100.913579 0,108.572307 0,117.977801 Z M11.5400463,51.6531416 C11.5400463,47.9139176 13.6220299,44.6840258 16.6678468,42.9609913 L136.304146,42.9609913 L136.304146,61.6778515 L21.5752512,61.6778515 C16.0423932,61.6774527 11.5400463,57.1792161 11.5400463,51.6531416 Z M28.0978947,76.3780871 L32.1117371,76.3780871 L144.667216,76.3780871 L144.667216,96.4255127 L32.1117371,96.4255127 L28.0978947,96.4255127 C22.5650368,96.4255127 18.0626899,91.9302675 18.0626899,86.4023982 C18.0628895,80.8729335 22.5650368,76.3780871 28.0978947,76.3780871 Z M18.0628895,107.953291 L22.0771312,107.953291 L132.290902,107.953291 L132.290902,128.002113 L22.0769315,128.002113 L18.0626899,128.002113 C12.5302313,128.002113 8.028084,123.506867 8.028084,117.977602 C8.028084,112.448337 12.5304309,107.953291 18.0628895,107.953291 Z" id="Shape"></path>
            </g>
        </g>
    </g>
</svg>