<?xml version="1.0" encoding="UTF-8"?>
<svg width="540px" height="540px" viewBox="0 0 540 540" version="1.1" xmlns="http://www.w3.org/2000/svg" xmlns:xlink="http://www.w3.org/1999/xlink">
    <!-- Generator: Sketch 43.2 (39069) - http://www.bohemiancoding.com/sketch -->
    <title>77 essential icons search</title>
    <desc>Created with Sketch.</desc>
    <defs></defs>
    <g id="Page-1" stroke="none" stroke-width="1" fill="none" fill-rule="evenodd">
        <g id="77-essential-icons-search" fill-rule="nonzero" fill="#000000">
            <g id="_x37_7_Essential_Icons" transform="translate(0.183200, 0.014894)">
                <path d="M535.333493,466.570408 L401.179572,332.351524 C423.893463,296.843882 434.5406,255.655018 434.5406,215.176307 C434.5406,95.160479 338.716371,0 218.758633,0 C93.8322307,0 -0.57237999,98.7112431 0.137429112,217.306765 C0.847238215,335.902288 96.6714671,434.613531 218.758633,434.613531 C259.927561,434.613531 298.967061,423.251086 333.037898,401.946501 L467.191819,535.455233 C472.870291,541.136455 481.388001,541.136455 487.066474,535.455233 L536.043302,486.454687 C541.011965,480.773465 541.011965,472.251631 535.333493,466.570408 Z M218.758633,406.207418 C112.287267,406.207418 29.2396023,320.278926 28.5297932,216.596613 C27.8199841,114.334605 109.448031,27.6959603 218.758633,27.6959603 C325.229998,27.6959603 405.438427,110.783841 406.148236,214.466154 C406.858045,325.249995 319.551525,406.207418 218.758633,406.207418 Z M476.419337,505.628814 L355.75179,384.902833 C360.010644,381.352069 379.885299,361.46779 384.853963,355.786567 L505.52151,476.512548 L476.419337,505.628814 Z" id="Search"></path>
            </g>
        </g>
    </g>
</svg>